<svg id="Layer_1" data-name="Layer 1" xmlns="http://www.w3.org/2000/svg" viewBox="0 0 2046.85 522.29"><title>logos_group</title><circle cx="816.05" cy="258.35" r="67.01" style="fill:none;stroke:#000;stroke-width:6.23336124420166px"/><path d="M779.06,271.34c0,4,1.46,4.32,3.7,4.32h2.81v2.08c-3.14-.17-6.28-.34-9.43-.34-2.81,0-5.61.17-8.42.34v-2.08h1.35c2.19,0,3.76-.28,3.76-4.21V243.67c0-3.87-1.63-4.21-3.81-4.21l-1,.06v-2.08c2.24.17,3.81.33,6.12.33h3.64c2.13,0,4.1-.17,6.79-.17,6.45,0,10.27,1,13,4.49a10.78,10.78,0,0,1,2.13,6.79c0,5.44-2.81,12.57-14,12.57-1.68,0-3.31-.11-6.62-.39Zm0-12.63a23,23,0,0,0,4.77.5c9.71,0,9.88-7.8,9.88-9.88,0-9-7.85-9.31-10.27-9.31-3.31,0-4.38.45-4.38,1.91Z" style="fill:#020202"/><path d="M802.34,275.56c2.25,0,4.2-.24,4.2-2.84V250.34c0-1.84-1.36-2.07-4.2-2.07V246c2.07.18,4.15.3,6.22.3,2.61,0,4.62-.18,8.7-.18,7.58,0,10.36,4.2,10.36,8.11,0,4.79-3.43,7-7,8.11a7,7,0,0,1,4.5,3.79l2.78,5.63c1.66,3.32,3.14,3.79,4.86,3.79v2.08h-3.2c-3.61,0-5.15-.48-6.57-3.73l-3.26-7.4c-1.12-2.55-2.48-3-5.44-3h-2.43v9.41c0,2.37.89,2.66,4.2,2.66v2.08c-2.25-.12-4.56-.24-6.87-.24s-4.56.12-6.87.24Zm10.84-14.33c5,0,9.24-.36,9.24-6.63a6,6,0,0,0-1.07-3.67c-1.18-1.72-2.78-2.25-6.51-2.25-1.89,0-3,.06-3,1.25v11.31Z" style="fill:#020202"/><path d="M848.71,278c-7.76,0-15.87-4.26-15.87-16.46,0-8.17,4.38-16,15.75-16,12.43,0,16.28,8.94,16.28,16.16C864.87,269.64,861,278,848.71,278Zm.41-30.25c-7.75,0-10.36,7.11-10.36,14.15,0,6.81,2.84,13.62,10,13.62,6.57,0,10.3-5.09,10.3-13.2C859.07,251.46,854.27,247.8,849.12,247.8Z" style="fill:#020202"/><path d="M900.8,271.34c0,4,1.46,4.32,3.7,4.32h2.81v2.08c-3.14-.17-6.28-.34-9.43-.34-2.81,0-5.61.17-8.42.34v-2.08h1.35c2.19,0,3.76-.28,3.76-4.21V243.67c0-3.87-1.63-4.21-3.81-4.21l-1,.06v-2.08c2.24.17,3.81.33,6.11.33h3.65c2.13,0,4.1-.17,6.79-.17,6.45,0,10.27,1,13,4.49a10.78,10.78,0,0,1,2.13,6.79c0,5.44-2.81,12.57-14,12.57-1.68,0-3.31-.11-6.62-.39Zm0-12.63a23,23,0,0,0,4.77.5c9.71,0,9.88-7.8,9.88-9.88,0-9-7.86-9.31-10.27-9.31-3.31,0-4.38.45-4.38,1.91Z" style="fill:#020202"/><path d="M956.76,248.27c-3,0-4,.89-4,4v14.62c0,7.22-4,11.19-12.26,11.19-9.18,0-11.78-4.68-11.78-9.53V250.93c0-2.55-1.6-2.66-4.09-2.66V246c2.19.18,4.5.3,6.75.3s4.68-.12,7-.3v2.25c-3.37,0-4.44.24-4.44,2.07V268c0,3.91,2.48,6.69,8,6.69,4.74,0,7.76-2.19,7.76-8.52V251.59c0-2.55-.83-3.32-4.44-3.32V246c1.89.18,3.79.36,5.68.36s3.85-.18,5.74-.36v2.25" style="fill:#020202"/><path d="M960.68,275.5c4,0,4.14-1.24,4.14-3.67v-21c0-2.31-2-2.6-3.55-2.6h-.59v-2.19c2.07.12,4.14.3,6.21.3,2.9,0,6.93-.24,9.24-.24,7.52,0,9.53,4,9.53,7.16a8.06,8.06,0,0,1-5.44,7.28c3,.95,5.39,1.72,6.93,4.68a8,8,0,0,1,.94,3.73,8.81,8.81,0,0,1-3.61,6.75,11.21,11.21,0,0,1-6.57,1.78c-3.85,0-6.69-.3-10.07-.3-2.37,0-4.73.24-7.16.42Zm9.53-15.75h4.68c1.84,0,3.49-.24,4.68-1.89a6.27,6.27,0,0,0,.95-3.55c0-5.45-4.44-5.74-5.74-5.74h-2.25c-2,0-2.31.59-2.31,1.72Zm0,13.14c0,1.42,0,2.08,4.56,2.08h1.48c3.43,0,6.45-1.72,6.45-6s-3.14-6.87-8.82-6.87h-3.67Z" style="fill:#020202"/><path d="M997.33,251.05c0-2.66-1-3-4.21-3V246a65.92,65.92,0,0,0,6.69.36c2.31,0,4.68-.18,7-.36v2.25c-3.08,0-4.2.41-4.2,2.9v22.2a1.21,1.21,0,0,0,1.36,1.36h3.79c6.16,0,7.93-1.36,8.94-7h2.72a83.94,83.94,0,0,0-1.78,9.95c-4.32-.12-8.64-.24-13-.24-4,0-7.4.12-11.61.24V275.5c2.9,0,4.21-.41,4.21-2.48v-22" style="fill:#020202"/><path d="M1036.41,248.39c-3.55,0-4.2.94-4.2,3.08V273c0,1.89,1.48,2.37,4.2,2.37v2.25c-2.37-.12-4.74-.24-7.11-.24-2.19,0-4.38.12-6.57.24v-2.25h.41c2.25,0,3.73-.47,3.73-2.37V250.81c0-2.13-1.54-2.42-4.15-2.42V246c2.37.24,4.74.47,7.11.47a61.32,61.32,0,0,0,6.57-.47v2.37" style="fill:#020202"/><path d="M1065.07,256.38c-.71-5.51-1.84-8.05-8-8.05-8.94,0-10.6,7.93-10.6,12.37,0,10.12,5.57,14.09,10.84,14.09,2,0,6.21-.41,9.12-5.56l2.37.94a14.52,14.52,0,0,1-13.38,7.94c-9.42,0-14.69-7.46-14.69-15.93,0-5.39,2-16.52,16-16.52a33,33,0,0,1,11,2.13c.12,4.79.18,8.88.18,8.88l-2.84-.3" style="fill:#020202"/><path d="M1098,273a3.56,3.56,0,0,0,3.85,2.54v2.08c-2.19-.18-4.38-.3-6.57-.3s-4.26.12-6.39.3v-2.08h1.6c.77,0,1.78-.36,1.78-1.06a2.79,2.79,0,0,0-.3-1l-2.78-7.58h-10.42l-3,7.4a3.13,3.13,0,0,0-.24,1c0,.89.59,1.06,3.91,1.06v2.25c-1.72-.12-3.49-.3-5.27-.3s-3.73.18-5.56.3v-2.08c2.84-.24,3.37-.59,4.44-3.14l11.61-27.24h2Zm-18.24-9.59h8.41c-1.48-3.61-2.85-7.28-4.15-11Z" style="fill:#020202"/><path d="M1011,147.77l6.9,13a3.13,3.13,0,0,1-1.29,4.21l-112.83,60a3.13,3.13,0,0,1-4.21-1.28l-8.79-16.53a3.13,3.13,0,0,1,1.29-4.21l112.83-60a3.13,3.13,0,0,1,4.21,1.28l.58,1.08L896,205.75l1.32,2.47L1011,147.77Z" style="fill:#0e0e0e"/><path d="M881.27,218c-3.3,1.75-11.39,2.92-11.39,2.92l7,13.24s5.44-5.76,8.9-7.6c3.27-1.74,11.29-3.12,11.29-3.12l-7-13.24s-5.37,6-8.8,7.8Z" style="fill:#0e0e0e"/><g id="layer1"><g id="g12647"><path id="path1642" d="M189.21,210.53a30.34,30.34,0,0,0-6.67,6.82,36.25,36.25,0,0,0-7-6.36,44.59,44.59,0,0,0,7-7.13,41.43,41.43,0,0,0,6.67,6.67"/><path id="path1644" d="M229.73,228c-.37,4.67-3.94,9.38-8.92,9.38-4.64,0-7.5-1.88-9.07-5.19l-.62.38v31.25c2.53,1.35,6.48,3.73,8.66,5.18l4.74-4.88.74.65L213.92,276.6a120.63,120.63,0,0,0-16.21-9.85v-.36l2.23-8.19V237a64.93,64.93,0,0,0,19.16-11.71,6.9,6.9,0,0,0,5.58,3.33,8.84,8.84,0,0,0,4.74-1.09l.31.47Z"/><path id="path1646" d="M196,266.74l-9.75,10.13a77,77,0,0,0-10.89-7.24v-.51c1.33-.55,2.23-2.73,2.23-5.46V235.47L174.06,233l-2.85,2.92-.69-.68,9.63-10.08A81,81,0,0,0,191,232.31v.25c-1.53.92-2.23,3.87-2.23,7.29v26.89l3.66,2.29,2.82-3Z"/><path id="path1648" d="M173.62,266.85l-9.72,10a76.11,76.11,0,0,0-8.64-5.66V237.35a26.22,26.22,0,0,1-5.74-3.9l-3.19,3.33v29.95l4.47,2.54v.4l-7,7.16a66.41,66.41,0,0,0-10.86-7.08v.09c1.31-1.23,2.23-3.38,2.23-7.51V211.76c0-3.83-.69-5-1.46-6.28l.53-.23a7.82,7.82,0,0,1,3.16,5.28h.42c2.41-4.12,5.39-6.82,11.21-7.58l.15.31a11.42,11.42,0,0,0-2.84,7.66v24.83l9.27-10a81.09,81.09,0,0,0,13.08,9.35v-.44c-1.41,1.51-2.23,4.4-2.23,9.39v22.85l3.6,2.3,2.91-3Z"/><path id="path1650" d="M115,273.1H112.8V217.24H115Z"/><path id="path1652" d="M133.25,266.89c-5.33,6.2-15.38,16.37-30.92,16.37-21.15,0-36.69-14.37-36.69-38.9,0-22.52,18.57-35,30.6-39.64l1,.5c-11.34,7.52-17.44,16.62-17.44,32.48,0,14,5,24,12.59,29.78l2.55-1.73V231.61l-2.23-11.48v-.31A103.9,103.9,0,0,0,117,203.39a9.16,9.16,0,0,0,7.43,3.29,11.46,11.46,0,0,0,7-2.26l.55.46c-.29,6.8-3.91,13.13-12.43,13.13-5.32,0-8.21-1.79-10.87-4.85l-.39.08v45.09a168.53,168.53,0,0,0-15,9.95c5.12,3.54,12.59,4.19,20.24,4.19,7.15,0,13.49-2.79,19.25-6.81l.41,1.23Z"/><path id="path1654" d="M334,268.4V239c-2.4-1.49-6.27-4.51-7.8-5.75l-1.14.64v29.39c1.65,1,4.83,3.41,7.82,5.75ZM347.42,235c-2,.7-4.47,7.22-4.47,7.22v23c-4.43,1.94-14.53,7.58-19.59,11.62a106.12,106.12,0,0,0-13.92-9.16v-.32l4.47-7.44V237.2a136.9,136.9,0,0,0,19.4-11.72,144.77,144.77,0,0,0,14.11,9.18V235Z"/><path id="path1656" d="M291.56,266.08V238.69a71,71,0,0,1-7.87-5.54l-1.06.64V263c1.74,1,5.43,3.66,7.1,4.9l1.84-1.84Zm14.2,7.22c0,3-4.25,6.13-8.81,9.8-6,4.83-9,7.14-9,7.14-3-1.67-4.66-2.15-9-2.15-5.53,0-8.66.57-12.57,2.15l-.23-.08a20.17,20.17,0,0,1,18.16-10.73,21.94,21.94,0,0,1,11.2,3.53c.76-.48,3.22-2.28,3.22-3.6,0-3.92-7.23-3.55-8.43-10.73L281.93,277a125.75,125.75,0,0,0-15-9.65v-.51c1.59-1,2.23-2.38,2.23-5.89V237.6c8.45-4.45,16.19-8.91,20.91-12.53A117.21,117.21,0,0,0,305,234.89v.34c-1.65,1-2.23,2.6-2.23,8.37v18.81c0,6.21,4.44,5.74,4.44,10.88"/><path id="path1658" d="M246.87,268.7V248.23c-6.67.79-10.42,5.52-10.42,11.43a11.53,11.53,0,0,0,8.13,10.64Zm0-22.42v-8.17a96.63,96.63,0,0,1-9.5-6.51l-1.23.77c.38,5.4,1.13,12.47,4.74,16.1a39,39,0,0,1,6-1.23m19.9,19.69L257,276.82c-2.39-2-9.73-6-9.73-6h.36c-3.51,2.37-6.35,4.37-9.76,6.66-6.12-1.91-11-7.15-11-13.25,0-8.22,7-12.45,13.39-14.64v-.08c-5.53-2.54-10-7.36-11.29-13.18L246.61,226a132.14,132.14,0,0,0,15.89,10.12v-.4s-3.78,3.08-4.47,7.44v23.14l5.13,2.84,2.84-2.91.76.76Z"/><path id="path1660" d="M614.15,267,604.21,277a81.58,81.58,0,0,0-8.77-5.82V237.15a44.36,44.36,0,0,1-4.75-3.49l-4.19,4.26v28.88a28.88,28.88,0,0,1,4.47,2.59v.39l-7,7.13a72.32,72.32,0,0,0-10.9-7.06v-.52c1.51-.86,2.23-2.65,2.23-6.76V237.47L570,233.23l-2.86,2.93-.7-.69,9.87-10.1a65,65,0,0,0,10.18,8v2.78l10-10.55a140.7,140.7,0,0,0,12.32,8.26v.58c-1.73.93-2.23,3.24-2.23,7.34v24.85l3.88,2.56,3-3,.7.7Z"/><path id="path1662" d="M570.3,266.73,560.45,277a80.8,80.8,0,0,0-9.69-6.59v-3.31l-10.66,9.71a58.51,58.51,0,0,0-11.69-7.71v-.35l2.23-8V235.66l-3.57-2.5-3,3.11-.77-.7,9.85-10.24a48.27,48.27,0,0,0,8.69,5.82v34.63s2.82,2.14,4.66,3.59l4.44-4.13s0-21.76,0-29.73a43.84,43.84,0,0,0-4.64-2.69v-.27a61.51,61.51,0,0,0,7-7.11,96.31,96.31,0,0,0,10.84,7v.4c-1.6.74-2.23,2.45-2.23,6.17v27.2l5,2.8,2.79-2.87.62.62Z"/><path id="path1664" d="M476.37,210.61a35.42,35.42,0,0,0-6.67,6.82,45.63,45.63,0,0,0-6.82-6.51,43.72,43.72,0,0,0,6.82-7.27,63.25,63.25,0,0,0,6.67,7"/><path id="path1666" d="M484.45,266.79,474.64,277a81.15,81.15,0,0,0-11-7.27v-.44c1.58-1,2.23-3,2.23-6v-27.6l-3.62-2.54-2.78,2.84-.7-.68,9.64-10c2.7,2.6,8.06,5.72,10.87,7.17v.23c-1.53.91-2.23,2.37-2.23,6.34v27.83l3.83,2.3,2.92-3,.69.7Z"/><path id="path1668" d="M458.53,228.4c-.35,4.07-4,9.31-8.52,9.31a8.93,8.93,0,0,1-7.58-3.92L441.27,235v29.67a80.15,80.15,0,0,1,7.82,4.42l2.87-2.95.78.68L442.67,277a114.06,114.06,0,0,0-14.81-9.45v-.11c1.59-.57,2.23-1.87,2.23-4.45V237.47l-5-4.37-2.81,3-.71-.71,9.61-10.15a72.5,72.5,0,0,0,9.93,8.44l8-8.36c1.5,1.84,3.13,3.43,5.94,3.43a8.11,8.11,0,0,0,3.12-.69l.39.3Z"/><path id="path1670" d="M428.85,204.47c-1.09,8.48-4.58,16-13.57,16-1.07,0-3.07-.23-3.07-.23V270.4c5.41-.76,12-3.38,14.62-5.48l.38,1c-4.08,5.85-15.32,14.79-29.24,14.79-17.6,0-31.22-11.59-31.22-30.32,0-16.13,13.31-27.76,22-30.83l.76.3c-6.07,5.53-10.35,13.05-10.35,24.91,0,9.89,4,16.44,10.2,21.32l2.74-1.75V239.73l-4.47-10.12v-.45a133.36,133.36,0,0,0,15.64-8v36.23s-10.36,6.87-13.82,9.52c4,2.76,9.81,4.14,15.86,4.14,2.08,0,6.9-.46,6.9-.46V220.18s-24.31-5.49-33.33-5.49c-6.33,0-11.11,2.59-11.11,7.41,0,2.92,2.29,4.18,3.75,4.83l-1.23.68c-2.69-1.22-6.05-4.15-6.05-10.34,0-9,7.26-14.94,17-14.94,13.49,0,26.18,7.12,38.09,7.12a9.64,9.64,0,0,0,8.81-5.52l.69.53Z"/><path id="path1672" d="M638.46,245.32c-1.57-2.23-6.54-9.62-8.73-13.1l-.76.61v18.85ZM648.85,240c-6.42,3.93-14.06,9-19.89,13.18v10.89a78.9,78.9,0,0,1,8.76,5.08l5.08-5.24.67.61-11.89,12.27a175.06,175.06,0,0,0-16-10v-.31l2.23-8.28V237.34a88.9,88.9,0,0,0,19.34-12.1L648.85,240Z"/><path id="path1674" d="M508.3,268.37v-29.7l-5.61-3.84L499.36,238v25.25l7.59,5.8,1.35-.7Zm13.41-33.07c-1.77.74-2.23,3-2.23,8.11v21.94c-4.62,1.62-14.83,6.92-19.59,11.45-3.59-2.5-9.31-6.42-13.93-9.16v-.32a26.44,26.44,0,0,0,2.23-9.52v-46a18,18,0,0,0-1.87-6.58l.47-.23c1.61,1.38,3.14,5.51,3.14,5.51h1c2.37-4.11,5.33-6.75,11.05-7.51l.08.45a11,11,0,0,0-2.73,7.82v24.45l9.07-10c2.73,2.54,9.76,7.16,13.27,9.43Z"/></g></g><g id="layer1-2" data-name="layer1"><path id="path3698" d="M56.85,14c0-8-13.08-10.19-13.08-10.19V5.18s5.83,1.34,5.83,4c0,1.88-1.34,4-5.1,4-2.95,0-8.85-1.88-13.68-3.22-5.1-1.88-9.92-3.49-14.21-3.49-8,0-13.95,5.9-13.95,13.14,0,5.9,4.56,8,6.44,8.85l.54-1.07c-1.07-.8-2.41-1.61-2.41-4,0-1.88,1.61-4.56,5.63-4.56,3.75,0,8.58,1.61,15,3.49a122.36,122.36,0,0,0,15.89,3.49v12.6l-5.47,5.1v.54l5.47,5.36V66.86s-7.84,2.41-11.06,2.41c-5.9,0-11.53-1.61-16.09-6.44l16.21-8V26.9L12.87,36C15,30.66,19.31,26.9,23.6,24.22l-.27-1.07C11.26,26.37,0,37.63,0,51.58a28.78,28.78,0,0,0,28.69,29c16.63,0,26.82-28.18,26.82-28.18H54.44s-5.9,11.55-10.66,14.23V49.43l5.47-5.36v-.54l-5.47-5.36V25.56s13.08-4,13.08-11.53Zm-35,45.32-5.1,2.41c-2.95-3.75-4.56-8.58-4.56-15.55a30.81,30.81,0,0,1,1.07-8.85l8.58-3.75Zm41,8.85-3.66,4,.8.8,2.68-1.88,9.12,8.31,12.34-8.31-.54-.8-3.22,2.15-3.84-4V40.28l3.46-2.59,7.49,6V68c0,16.28-3.65,18.8-10.94,21.61v1.26c11.48.54,21.89-3.49,21.89-23.33V40.71l3.74-2.95-.8-.8-3.2,2.41-9.88-8.58L76.61,39.64V5.85H75.36l-15.16,9v.8c2,.8,2.74,6.44,2.74,6.44ZM137,64.29l-9.42,7.38-9.93-7.89V58.5L136.8,45.73V45l-9.42-14.39-20.68,11V68.62l-4.07,3.05.76.76,3.56-2.8,13.24,9.42,17.56-14Zm-16.61-7.09V37.09l.8-.54L130,50.77Zm97.75-47.6a9.46,9.46,0,0,0-.81-3.76h-2.55c-1.37,3.56-3,5.47-6.84,5.47-3.56,0-6.29-2.19-7.93-3.83l-12,14,1.09.82,3.28-3.83c2.46,1.92,4.38,3.83,10.12,4.1V57.29L178.12,14.88c-1.92-3.28-5.2-7.93-10.94-7.93-6.57,0-12.59,5.75-11.77,15.32h4.85c.26-2.41,1.56-5.36,4.17-5.36,2.08,0,4.17,2.15,5.21,4V34.33c-7.3,0-12,3.49-12,9.39,0,3.22,1.56,8.31,6.51,9.39v-.46s-2.72-1.34-2.72-2.95c0-2.15,1.61-3.75,4.56-3.75a1.65,1.65,0,0,1,.9.27V63.64s-14,4.83-14,13.14c0,7.78,16.78,11,16.78,11V86.71s-9.81-2.41-9.81-5.36c0-3.49,2.41-5.36,5.63-5.36s6.17,2.15,8.31,4.29l11.8-13.14-1.07-.8-2.95,3.49c-4.56-4-11.92-6.17-11.92-6.17V22l33.14,57.76h2.43V22c7-.54,12.93-5.37,12.93-12.36Zm28.3,54.69L237,71.68l-9.93-7.89V58.5l19.15-12.77V45l-9.42-14.39-20.68,11V68.62l-4.07,3.05.76.76,3.56-2.8,13.24,9.42,17.56-14-.76-.76ZM227.1,57.21V37.09l.8-.54,8.85,14.21Zm86.06-22.43-2.74,2-7.21-6.22-8.46,7.71,3.48,3.23V72.76l-10.94-6.44V41.13l3.05-2-9.16-8.4-8.4,7.89,3.56,3.31V71.42l-.93.8-10-6.17V41.39s-1.25-7.24-5-9.65c-2.95-1.88-4.29-3.49-4.29-6.17,0-2.41,3.82-4.29,3.82-4.29V20.2s-12.14,3.22-12.4,11.26c0,4,1.88,5.9,4,7.78s5.65,7.24,5.65,7.24V70.23l-4.1,3.33.77.77,3.84-3.07,10.24,8.19,9.73-6.66,10.76,6.66,20.74-12V39.26l5-3.73-1-.75Zm79.09-22.44L388,16.09l-9.74-8L363.9,18V8.58h0l.29,66.51c-1.47-.27-5.28-1.07-8.5-1.34l-.28-56.15c0-4.14-3.07-9.94-10.61-9.94C337,7.65,332,13.45,332,19.53h1.12c.28-2.49,1.68-4.69,4.19-4.69S342,16.49,342,22V38.58c-7.82.28-12.28,4.69-12.28,9.94,0,3.31,1.4,8.56,7,8.56L337,56c-2-.83-2.23-1.93-2.23-3,0-2.49,2.23-3.31,5.58-3.31H342V75.1c-6.06,2.15-8.81,6.44-8.81,11.53,0,6.7,5.5,12.07,13.76,12.07,5.78,0,10.73-1.07,16.24-2.15,4.4-.8,9.63-1.88,12.11-1.88,3.3,0,4.68,1.34,4.68,3.75,0,2.95-1.38,4-3,4.29l.28,1.07c6.88-1.34,11-5.36,11-11.26,0-6.17-6.06-9.92-12.94-9.92-3.58,0-10.46,1.07-15.69,2.15a77.08,77.08,0,0,1-13.49,1.88c-3,0-6.61-1.34-6.61-5.1,0-3.49,3-6.17,10.18-6.17A63.24,63.24,0,0,1,362.93,77c5.23,1.07,9.63,2.41,14,2.41,6.06,0,11.56-2.15,11.56-10.73V17.43l5.15-4Zm-17.4,25.29c-2.35,1.07-4.23,2.41-6.11,2.41a6.51,6.51,0,0,1-4.84-2.41V19.39l4-2.95,6.91,5.1V37.63Zm0,12.07c-2.35-1.07-4-2.15-6.11-2.15a7.46,7.46,0,0,0-4.84,2.15V39a6.85,6.85,0,0,0,4.84,2.15c2.15,0,4-1.07,6.11-2.15Zm-1.28,19.08a6.17,6.17,0,0,1-6.44,6.4,12.16,12.16,0,0,1-3.23-.27V51A8.26,8.26,0,0,1,369,48.89c2.15,0,3.75,1.07,5.84,2.15V68.78ZM429.3,40l-13-9.27L396.73,42.09V68.57l-4,3.18.53.79,3.18-2.65,13,9.53,20.12-12.18ZM407.68,66V35.44l10.94,7.86V73.88ZM468.5,30.47h-.8c-1.07,2.06-2.41,2.6-3.49,2.6-1.61,0-3.49-1.07-4.56.14h-.8l-7,5.23-7.24-7.51-12.07,8.31.54,1.07,3.22-2.15,4.19,4.56V68.47l-5.26,4,.8.8,2.68-1.88,9.92,8.31,12.87-8.58-.54-.8-3.49,2.15-6-4.29V39.51c3.37,2.15,5.78,4.29,8.46,4.29,5.1-.27,8-6.17,8.58-12.34ZM517.84,70.7,503.9,79.82l-19-28.69,13.41-20.65h.8c1.61,1.61,4.29,3.22,6.7,3.22a6.89,6.89,0,0,0,5.9-3.22h.8c-.54,8.31-6.17,12.87-10.19,12.87-4.29,0-6.44-1.88-8.58-3.22L492.37,42l20.38,30.3,4-2.41Zm-44.76-1.83-5.21,4,.78.8,2.61-1.88,8.86,8.31,12-8.31-.78-.8-3.13,2.15-3.91-4V5.85h-.77L467.87,15.1v.8c2.24.8,5.47,6.17,5.47,6.17ZM585.69,14c0-8-13.85-10.19-13.85-10.19V5.18s6.61,1.34,6.61,4c0,1.88-1.34,4-5.1,4-2.95,0-8.85-1.88-13.68-3.22-5.1-1.88-9.92-3.49-14.21-3.49-8,0-13.95,5.9-13.95,13.14,0,5.9,4.56,8,6.44,8.85l.54-1.07c-1.07-.8-2.41-1.61-2.41-4,0-1.88,1.61-4.56,5.63-4.56,3.75,0,8.58,1.61,15,3.49a150.78,150.78,0,0,0,15.11,3.49v12.6l-5.47,5.1v.54l5.47,5.36V66.86s-7.07,2.41-10.29,2.41c-5.9,0-11.53-1.61-16.09-6.44l18.17-8V26.9L541.71,36c2.15-5.36,6.44-9.12,10.73-11.8l-.27-1.07c-12.07,3.22-23.33,14.48-23.33,28.43a28.78,28.78,0,0,0,28.69,29c16.63,0,26.82-28.18,26.82-28.18h-1.07s-5.9,11.55-8.7,14.23V49.43l5.47-5.36v-.54l-5.47-5.36V25.56s11.11-4,11.11-11.53ZM550,59.35l-5.1,2.41c-2.95-3.75-4.56-8.58-4.56-15.55a30.81,30.81,0,0,1,1.07-8.85L550,33.61V59.35ZM600,8.58h-.55L591,16.07v.58L598.11,25h.82l8.48-7.2v-.58L600,8.58Zm11.52,61.25-3.05,2-3.82-3.82V41.33l3.82-2.8-.76-1-2.8,2.29-6.87-8.14-11.2,7.89.76,1,2.8-1.78,3.31,4.33v25.2l-5.09,3.82.51.76,2.55-1.78L600.1,79l11.71-7.89Zm68.4.4L677.15,72l-4.07-3.82V40.09l4.33-3.25L676.6,36l-3.52,2.71-9.48-8.67-12.19,8.67-9.48-8.67L630,38.73l-7.31-8.67-11.92,8.4.54,1.08,3-1.9L618.36,42V68.73l-3.05,3.05,8.91,7.38,8.65-7.89L629.3,68V40l4.93-2.41,6,5.9V68.35l-3.13,3.13L646.24,79l8.6-8.08-3.65-3.39V39.51l4-2.15,7,5.63v24.7l-2.55,2.8,9.16,8.14,12-8.14Zm34.36-5.94-9.42,7.38L695,63.79V58.5l19.15-12.77V45L704.7,30.57,684,41.56V69.65l13.49,9.67,17.56-14ZM695,57.21V37.09l.8-.54,8.85,14.21Zm57.88-3.14-7.78-5.9a20.3,20.3,0,0,0,7.24-15,11.11,11.11,0,0,0-.27-2.68H751a5.64,5.64,0,0,1-5.63,4c-3.22,0-5.36-1.88-7.24-4l-18.5,9.92v15l6.7,5.36c-7,6.17-8.31,10.46-8.31,13.68,0,4,1.88,7,5.36,8.31l.54-.8a3.77,3.77,0,0,1-1.61-3.22c0-1.34,1.61-3.22,4.83-3.22,4,0,6.44,2.68,7.78,4.29l17.7-10.73Zm-5.15-13c-2.68,4.83-9.12,9.65-12.6,12.34L730.54,50V35.49c1.88,4,6.17,7.24,10.73,7.24A11.44,11.44,0,0,0,747.7,41.12Zm-6,33.13A13.28,13.28,0,0,0,730,66.47a15.52,15.52,0,0,0-7.78,1.88c1.88-3.22,7.24-8.85,14.21-13.14l5.1,4v15Z"/></g><g id="g4167"><path id="polygon3" d="M74.52,419.25h8.37v25.1H104.4v-25.1l7.17-.05v61h-6V446.74H82.88v33.47H74.52Z"/><path id="polygon5" d="M171.46,419.25H179l31.77,39.64V419.25h4.78V481l-39.45-49.76v49h-4.78Z"/><path id="path7" d="M224.05,419.25H246.6l3.22,7.55a15.58,15.58,0,0,0-10.86-4H233.5v21.52h8.72c4.43,0,5.09-.43,6.82-2.13v8.63s-1.93-2.91-6.82-2.91H233.5v28.69h12.07c12.3-.28,18.57-5.39,18.57-5.39l-4.51,9H223.94Z"/><path id="path9" d="M535.93,419.25H561.6l3.4,7.56s-3.73-4-12-4H544.3v21.52h9.62c3.5,0,4.58-.34,5.92-1.78v7.59s-1-2.22-5.92-2.22H544.3v28.69h5.89c10.83-.28,15-3.54,15-3.54l-5.49,7.13h-25l1.2-61.25Z"/><path id="path11" d="M121.14,419.25h25.67l3.4,7.56s-3.73-4-12-4H129.5v21.52h9.62c3.5,0,4.58-.34,5.92-1.78v7.59s-1-2.22-5.92-2.22H129.5v28.69h5.24c10.83-.33,15-3.59,15-3.59l-5.49,7.18H119.94l1.2-61.29Z"/><g id="g13"><g id="g15"><path id="path17" d="M63.21,419.25H24.69l-3.21,7.56s3.52-3.72,11.35-3.72h7l0,57.12h8.35V422.83h7.09c7.59,0,11,3.46,11,3.46Z"/></g></g><path id="polygon19" d="M251.91,419.25h9.49l20.46,45.13,4.29-9.49-15.67-35.64h9.07l11.38,24.09,10.89-24.09h4.62l-13,30.61,6.6,14.52L320,419.25h5.53l-27.39,62-9.49-20.13-9.24,20.21Z"/><path id="path21" d="M411,416.86c21.19,0,34.06,14.94,34.06,31.53,0,21.43-11.63,34.9-33.56,34.9s-35-16.58-35-33C376.52,431.69,390.35,416.86,411,416.86Zm-25.43,32c0,14.41,8.11,30.16,26.55,30.16,17,0,23.81-14,23.81-29.79,0-12.7-8.6-28.79-25.3-28.79-11.7,0-25.05,9.23-25.05,28.42Z"/><path id="path23" d="M453.45,419.25h13.69c7.59,0,13.94,4.4,13.94,12.54,0,9.59-7.07,12.08-11.88,13.61,8.75,1.46,12,5.65,12,17.41s3,16.09,5.67,16.09a5.3,5.3,0,0,0,4.26-2.31l1.2.82a9.68,9.68,0,0,1-8.41,4.37c-5.61,0-9.9-5.2-9.9-17.41,0-17.65-4.77-18-8.58-18v-2.15c.11,0,7.55-1.76,7.55-11.71,0-9.41-5.19-10.88-7.32-10.88h-3.81v58.57h-9.56l1.2-61.25Z"/><path id="path25" d="M569.51,419.25h14.18s13.94,4.12,13.94,12.26c0,9.59-7.07,12.08-11.88,13.61,8.75,1.46,12,5.65,12,17.41s3,16.09,5.67,16.09a5.3,5.3,0,0,0,4.26-2.31l1.2.82a9.68,9.68,0,0,1-8.41,4.37c-5.61,0-9.9-5.2-9.9-17.41,0-17.65-4.77-18-9.18-18v-1.32c.72,0,8.77-1.75,8.77-11.63,0-9.34-5.61-10.81-7.92-10.32h-4.43v57.38H569.4Z"/><path id="path27" d="M521.58,462.8c0,11.73,3,16.09,5.67,16.09a5.29,5.29,0,0,0,4.26-2.31l1.2.82a9.69,9.69,0,0,1-8.41,4.37c-5.61,0-9.89-5.2-9.89-17.41v-2.76s-.94-13-2.21-16.67c-1-2.88-4.52-5-6-5.37h-2.52v40.64h-8.37l.11-61h8.26v18l15.13-18h8l-17,19.06c8.74,1.46,11.76,8,11.76,22.1v2.39Z"/><path id="polygon29" d="M363.8,480.21V448.74l17.53-29.49h-5.67l-16.65,28-16.65-28H336.7l17.53,29.49v31.47Z"/></g><path d="M1628.82,447.15a75.2,75.2,0,1,1,75.27,75.13,75.14,75.14,0,0,1-75.27-75.13m117.86.17h8.38l-18-41h-11.8l18.17,41h-8.61v11.13c0,6.81-2.77,9.6-11.89,9.6V489.6h11.89V468.47h3.78c3.38.14,8-2.84,8.11-8.51V447.33Zm-56.82-41c-17.8,0-32.52,12.61-32.52,31.33,0,15.73,9.37,27,23.29,29.16V489.6h29.07V468.47h4c4.68-.41,7.88-3.66,7.88-8V447.33h7.9l-17.8-41Zm16.29,35.83a7.71,7.71,0,1,0-7.71-7.71,7.69,7.69,0,0,0,7.71,7.71"/><path d="M1810,422.23h-9.11V411.66h30.37c16.44,0,25.91,8.5,25.91,21.73,0,13.51-9.89,21.87-25.35,21.87h-8.46v15.85h10.57V483h-33V471.11h9.25V422.23Zm13.35,21.14h9c7.61,0,11.7-4.65,11.7-10.57s-4.37-10.57-11.7-10.57h-9Z"/><path d="M1869.55,422.23h-7.93V411.66h28.65c17.75-.14,23.39,10.45,23.39,18.3a15.34,15.34,0,0,1-8.67,14.31,18.8,18.8,0,0,1,11.28,16.79c0,15.55-12.25,21.88-23.94,21.95h-32V471.11h9.25V422.23Zm13.21,48.88h8.17c6.69,0,11.25-3.62,11.25-9.91,0-5.22-3.48-9.91-11.25-9.91h-8.17Zm0-31.71h7.77c5.86,0,9.81-3.41,9.81-8.59s-4-8.59-9.81-8.59h-7.77Z"/><path d="M1958.19,422.69a23,23,0,0,0-8.58-1.67c-8.86,0-11.63,5.16-11.63,9.2,0,5.3,3.32,6.83,7.61,7.95l7.61,2.09c9.41,2.65,19.66,6.13,19.66,21,0,13.66-8.17,23.56-26.3,23.56a62.31,62.31,0,0,1-22.84-4v-19h13.21v9.36c3.33,1.51,7.08,1.79,10.69,1.79,7.77,0,11.24-4.13,11.24-9.49,0-3.58-1.8-6.33-10.41-8.67l-7.08-2.06c-13-3.72-17.49-9.49-17.49-20.37,0-11.28,7.08-21.19,25.12-21.19,7.77,0,15.4,1.38,21,3.72v16.54h-12l.28-8.78Z"/><path d="M836.72,3.16c12.47,0,25-.17,37.42.11a19.09,19.09,0,0,1,18.76,15.67c1.83,10.09-3.4,18.71-11.48,21a2.86,2.86,0,0,0-.65.44c7.7,2.2,12.3,7.3,13.59,14.94,2.13,12.6-4.82,23-17.95,24.42a83.52,83.52,0,0,1-8.81.33c-10.3.05-20.6.05-30.89.07Q836.72,41.67,836.72,3.16Zm16.58,62.31a2.2,2.2,0,0,0,.64.21c5.17,0,10.35.19,15.51-.05,5.34-.25,8.51-3.53,8.65-8.37s-2.79-8.36-8-9a95.52,95.52,0,0,0-10-.26c-2.22,0-4.43,0-6.76,0C853.31,53.89,853.31,59.57,853.31,65.47Zm-.11-31.79c4.82,0,9.39,0,14,0a13.69,13.69,0,0,0,2.64-.17c3.23-.65,5.66-2.31,6.51-5.67a8,8,0,0,0-7.63-10.28c-2.58-.13-5.18,0-7.76,0h-7.61c-.05.56-.11.9-.11,1.23C853.19,23.62,853.19,28.5,853.19,33.68Z"/><path d="M1134.18,81.59c-2-.36-3.92-.64-5.85-1.1-15.08-3.62-22.77-16.6-21.45-30.94,1.1-12,7.16-20.79,18.69-24.86,16.1-5.68,34.77,2,37.53,23.41.36,2.83.35,5.71.52,8.82H1122c1,5.28,3.63,9,8.27,10.95,7.54,3.2,14.61,1.6,21.27-2.68.39-.25.76-.55,1.14-.83,0,0,.11,0,.38,0l6.51,9.58c-2.14,1.34-4.12,2.79-6.28,3.87a34.34,34.34,0,0,1-12.69,3.43,10,10,0,0,0-1.5.35Zm15.09-34.81c.29-6.92-6.3-12.2-14.64-11.87-6.94.27-13.11,6.15-12.37,11.87Z"/><path d="M1193.88,81.59c-2.4-.48-4.84-.82-7.19-1.47a27.24,27.24,0,0,1-20-24.22c-1-11,2.21-20.25,11-27.16,13.33-10.48,39.53-8.1,44.73,16.69a37.76,37.76,0,0,1,.7,5.41c.12,1.92,0,3.86,0,6.09h-41.31a12.7,12.7,0,0,0,3.56,7.65c4.57,4.72,10.27,5.6,16.43,4.52a22,22,0,0,0,10.81-5l6.65,9.75c-1.73,1.16-3.3,2.38-5,3.33a35.16,35.16,0,0,1-13.77,4,13.61,13.61,0,0,0-1.67.36Zm-11.94-34.82h27c.35-6.7-6.09-12-14.17-11.87C1187.64,35,1181.42,40.71,1181.94,46.77Z"/><path d="M920.45,81.59c-1.77-.36-3.55-.68-5.3-1.09-10.86-2.59-17.28-10.72-17.29-21.9q0-16.07,0-32.14V24.54h14.68v2c0,10.13,0,20.25,0,30.37,0,4.59,1.38,8.48,5.74,10.48,4.72,2.17,9.55,2.09,13.91-1,3.2-2.28,4.1-5.76,4.11-9.5q0-15.1,0-30.2V24.5h14.52c0,.64,0,1.31,0,2q0,15.89,0,31.79c0,12.79-8,21.58-20.72,22.92a17.78,17.78,0,0,0-1.87.39Z"/><path d="M1059.09,80V3.21h53.41v7.45c0,1.65-.11,3.31,0,4.94s-.51,1.95-2,1.94c-10.54-.06-21.08,0-31.61,0h-3.33V33.68h2c7.95,0,15.9,0,23.84,0,1.61,0,2,.49,1.95,2-.1,4,0,8.1,0,12.34h-27.86V80Z"/><path d="M1226.87,80v-2q0-25.78,0-51.55c0-2.26,0-2.28,2.33-2.25,8.06.07,16.15-.27,24.17.35,11.42.88,20.36,6,24.6,17.3,4.3,11.46,1,24.53-7.72,31.7A29,29,0,0,1,1252.51,80c-8.29.3-16.59.09-24.89.1A4.72,4.72,0,0,1,1226.87,80Zm14-11.79H1249c9.48,0,15.45-5.35,16.51-14.78.76-6.77-2.9-13.51-8.74-15.9-5.14-2.11-10.51-1-15.86-1.28C1240.87,47,1240.87,57.43,1240.87,68.18Z"/><path d="M980.41,37.08H955.53V24.48h45c0,2.38-.12,4.77,0,7.14a7.6,7.6,0,0,1-1.9,5.59c-7.48,9.31-14.84,18.71-22.24,28.08-.4.5-.77,1-1.39,1.84h25.8V80H955.4c0-3.51-.05-7,0-10.52,0-.6.62-1.23,1-1.77q11.39-14.5,22.8-29C979.61,38.29,979.88,37.85,980.41,37.08Z"/><path d="M1004.82,37.09c0-4,0-7.62,0-11.27,0-.4.07-.8.11-1.33h44.83c0,3.39,0,6.72,0,10.05,0,.5-.51,1-.86,1.48q-11.58,14.7-23.18,29.38c-.38.48-.72,1-1.32,1.83h2.25c7.3,0,14.6,0,21.89,0,1.36,0,1.86.32,1.82,1.77-.1,3.63,0,7.27,0,11h-45.45c0-3.63,0-7.2,0-10.77,0-.45.48-.91.8-1.32q11.12-14.16,22.26-28.31c.57-.72,1.12-1.45,1.94-2.51Z"/><g id="layer1-3" data-name="layer1"><path id="path13406" d="M1982.84,273.56a4.55,4.55,0,1,0,4.25,4.54,4.36,4.36,0,0,0-4.25-4.54M1829,282.36h19.52v-1.74l-2.12-.48c-1.93-.48-2.8-1.55-2.8-4.25V249.6h4.54c2.8,0,4.25.68,4.45,6.57l.48,12.37c.39,11.11,3.58,14.21,9,14.21s7-3.77,7-9.09v-2.22h-2v1.64c0,3.58-.48,6.09-1.84,6.09s-1.35-1-1.64-5.41l-.58-8.5c-.77-11.41-2.22-15.37-10.63-16.91,8-2.12,13-8,13-16.43,0-10.92-8.6-16.14-16.82-16.14h-33v1.74l1.84.39c3.48.77,3.58,2.61,3.58,10.44V266.8c0,8.6-2.42,12.76-7.93,12.76-4.93,0-7.63-2.42-7.63-11.79V222.05c0-2.71.87-3.48,3-4l2.61-.58v-1.74h-20.2v1.74l2.12.58c1.93.58,2.61,1.35,2.61,4.06v44.94c0,10.15,5.9,15.75,14.89,15.75s13.43-5.61,13.43-16V224.85c0-5.22,1.07-7.05,5.32-7.05,3.38,0,4.84,1.16,4.84,4.35v53.73c0,2.71-.87,3.67-2.8,4.16l-2.13.58v1.74Zm129.7-60.21c0-2.71.87-3.58,2.8-4l2.61-.58v-1.84H1944v1.74l2.13.58c1.93.58,2.8,1.35,2.8,4.06v54.12c0,2.61-1.06,4.06-4.06,4.06-3.48,0-4-1.16-5.22-6.86l-12.37-57.89h-3.87l-11.79,56.05c-1.35,6.28-2,7.73-4.64,8.51l-1.64.48v1.74h13.82v-1.74l-2-.39c-2.9-.58-3.67-2.12-2.22-9.47l7-35.86,7.63,38c1.16,5.51,1.07,6.57-3.09,7.34l-2,.39v1.74h51.22v-22h-1.84c-1,10.15-3,19.72-11.21,19.72h-3.87V222.15Zm-30.15,42.23v-2.61h-13l-.39,2.61Zm-53.93-41.08v46.2c0,7,0,10.24-3.48,10.83l-1.74.29v1.74h14.21v-1.74c-6.18-.87-6.18-3-6.18-10.53V226.21l-2.32-2.13,23.68,58.28h4.06V228.62c0-7.92,0-9.66,3.87-10.73l1.35-.39v-1.74h-14.59v1.74l1.64.39c4.93.87,4.93,2.8,4.93,10.15v33.63l1-.29-18-45.62h-13.82v1.74l1.35.39c1.55.48,2.42,2.22,4.06,5.41m-31-5.22h3.87c3.86,0,7.44,2.51,7.44,15.08,0,12.85-2.71,14.11-8.12,14.11h-3.19Zm-64.36,30.35c0,27.93-2.32,31.89-7.35,31.89s-7.25-4-7.25-31.7c0-26.87,2.42-30.73,7.25-30.73,5,0,7.35,3.87,7.35,30.54m10.53.58c0-18.46-5.9-33.73-17.88-33.73s-17.78,15.27-17.78,33.73,5.9,33.83,17.78,33.83c12.28,0,17.88-15.27,17.88-33.83m-41.36-26.87c0-2.71.68-3.58,2.61-4.06l2.13-.58v-1.74h-20v1.74l2.41.58c1.93.48,3,1.16,3,4v46.49c0,6.47-.58,11.69-5.41,11.69-3.09,0-5.41-2.42-5.32-4.16.29-3,5.32-2.8,5.7-7.64.29-3.48-1.93-4.93-4-5.22-3-.39-6.67,2.13-6.77,7.15-.1,6.47,4.16,12.37,11.41,12.37,8,0,14.21-5.41,14.21-15.76V222.15Zm-322.8,0c0-2.71.87-3.58,2.8-4l2.61-.58v-1.84h-20.1v1.74l2.13.58c1.93.58,2.8,1.35,2.8,4.06v54.12c0,2.61-1.06,4.06-4.06,4.06-3.48,0-4.06-1.16-5.32-6.86l-12.37-57.89h-3.86l-11.79,56.05c-1.35,6.28-2,7.73-4.64,8.51l-1.64.48v1.74h13.82v-1.74l-2-.39c-2.9-.58-3.67-2.12-2.22-9.47l7-36,7.64,38.18c1.06,5.51,1.06,6.57-3.09,7.34l-2,.39v1.74h51.32v-22h-1.84c-1,10.15-3,19.72-11.21,19.72h-3.87Zm269.07-4.06h2.13c6,0,8,9.57,8.7,19.72h1.84v-22h-35.08v22H1674c.68-10.15,2.71-19.72,8.7-19.72h2.13v57.79c0,2.71-.87,3.67-2.8,4.16l-2.51.58v1.74h20.88v-1.74l-3-.68c-1.84-.48-2.8-1.06-2.8-4.06V218.09Zm-44.17,30.83,3,.1c4.35.1,5.6,1.74,6.48,12.28h1.84V234.42h-1.84c-1.07,8.41-2.22,12-6.38,12.08l-3.09.1V218.09h6.67c7.44,0,9.09,9.38,10.15,19.72h1.84v-22h-33.34v1.74l2.13.58c2.22.58,2.8,1.93,2.8,4.16v53.64c0,2.71-.87,3.67-2.8,4.16l-2.13.58v1.74h34.31v-22h-1.84c-1.16,10.05-2.42,19.72-11.11,19.72h-6.67V248.92Zm-36.44,0,3,.1c4.35.1,5.61,1.74,6.48,12.28h1.84V234.42h-1.84c-1.06,8.41-2.22,12-6.38,12.08l-3.09.1V218.09h6.67c7.44,0,9.08,9.57,10.15,19.72h1.84v-22h-34.31v1.74l3.09.58c2.22.58,2.8,1.93,2.8,4.16v53.64c0,2.71-.87,3.67-2.8,4.16l-2.13.58v1.74h34.31v-22h-1.83c-1.16,10.05-2.42,19.72-11.11,19.72H1614V248.92Zm-39.72-30.83h2.9c3.86,0,7.44,2.51,7.44,15.08s-2.7,14.11-8.12,14.11h-2.22Zm-14.59,64.27h19.52v-1.74l-2.13-.48c-1.93-.48-2.8-1.55-2.8-4.25V249.6h3.58c2.8,0,4.25,1.16,4.45,6.57l.48,12.37c.39,11.11,3.58,14.21,9,14.21s7-3.77,7-9.09v-2.22h-2v1.64c0,3.58-.48,6.09-1.84,6.09s-1.35-1-1.64-5.41l-.58-8.5c-.77-11.7-2.32-15.37-10.63-16.91,8-2.12,13-8,13-16.43,0-10.92-8.6-16.14-16.82-16.14h-18.46v1.74l2.13.58c1.93.58,2.8,1.35,2.8,4.06v53.73c0,2.71-.87,3.67-2.8,4.16l-2.13.58v1.74Zm-14.79-64.27h2.13c6,0,8,9.57,8.7,19.72h1.83v-22h-35.08v22h1.84c.68-10.15,2.71-19.72,8.7-19.72h2.13v57.79c0,2.71-.87,3.67-2.8,4.16l-2.51.58v1.74h20.39v-1.74l-2.51-.58c-2.51-.58-2.8-2.51-2.8-4.16Zm-22.33,47c0-19.81-21.74-25-21.74-39.43,0-3.09,1.16-7.73,6-7.73,7,0,9.57,9,10.73,19.91h1.84v-22h-1.16c-.48,2.13-1.35,3.09-2.61,3.09-2.22,0-3.38-3.48-8.7-3.48-8.21,0-13.82,6.86-13.82,15.85,0,16.33,21.75,23.2,21.75,38.27,0,6.86-3.19,10.73-7.54,10.73-6.48,0-10.73-7.63-11.89-19.91h-1.84v22h1.16c1-3.19,2.22-3.48,3.29-3.48,1.84,0,3.77,3.87,9.38,3.87,8.6,0,15.17-7.44,15.17-17.69m-63.3-42.91c0-2.71.87-3.58,2.8-4l2.61-.58v-1.84h-20.1v1.74l2.13.58c1.93.58,2.8,1.35,2.8,4.06v53.73c0,2.71-.87,3.67-2.8,4.16l-2.13.58v1.74h31.6v-22h-1.84c-1,10.15-3,19.72-11.21,19.72h-3.87Zm-64,42.23v-2.61h-13l-.39,2.61h13.43Zm-55.86,18.17h4l9-47.55h-1.35l9.86,47.55h3.48l11.79-56.05c1.26-5.9,1.93-7.92,4.25-8.51l1.84-.48v-1.74h-13.63v1.74l2,.39c2.9.58,3.57,2.32,2.22,9.47l-7.63,37.6h1.16l-7.73-39.63c-.77-3.77-1.26-6.86,1.93-7.44l2.13-.39v-1.74H1344.1v1.74l1.26.29c1.93.48,2.22,1.64,3,5.32l3,14.4-.58-8.7L1344.1,264h.87l-7.83-38.66c-.87-4-1.16-7,1.93-7.54l1.45-.29v-1.74h-19v1.74l1.84.48c1.74.48,2.71,1.35,3.87,6.67l12.27,57.89Zm-51.61-33.63,3,.1c4.35.1,5.6,1.74,6.48,12.28h1.84V234.42h-1.84c-1.06,8.41-2.22,12-6.38,12.08l-3.09.1V218.09h6.67c7.44,0,9.09,9.57,10.15,19.72h1.84v-22h-33.34v1.74l2.13.58c2.22.58,2.8,1.93,2.8,4.16v53.64c0,2.71-.87,3.67-2.8,4.16l-2.13.58v1.74h34.31v-22h-1.84c-1.16,10.05-2.41,19.72-11.11,19.72h-6.67V248.92Zm-60.79,33.44h19.81v-1.74l-2.22-.48c-1.74-.39-2.9-1.55-2.9-4.25V249.5h14.59v26.38c0,2.71-1.16,3.87-2.9,4.25l-2.22.48v1.74H1271v-1.74l-2.13-.58c-1.93-.48-2.8-1.55-2.8-4.25V222.15c0-2.71.87-3.58,2.8-4.06l2.13-.58v-1.74h-19.81v1.74l2.22.58c1.64.48,2.9,1.16,2.9,4v24.84h-14.59V222.05c0-2.71,1.06-3.48,2.9-4l2.22-.58v-1.74h-19.81v1.74l2.13.58c1.93.58,2.8,1.35,2.8,4.06v53.73c0,2.71-.87,3.67-2.8,4.16l-2.13.58v1.74Zm-14.79-64.27h2.13c6,0,8,9.57,8.7,19.72h1.84v-22h-35.08v22h1.84c.68-10.15,2.71-19.72,8.7-19.72h2.13v57.79c0,2.71-.87,3.67-2.8,4.16l-2.51.58v1.74h20.88v-1.74l-3-.68c-1.84-.48-2.8-1.06-2.8-4.06V218.09Z" style="fill:#1c1c21"/></g><path id="path10468" d="M1085.45,462.64V438h-6.81v-6.72l6.81-.91V422l14.7-2.06v10.46h9.75v7.67h-9.75V461.4c0,4.38,1.22,6.63,5.53,6.63a28.75,28.75,0,0,0,4.69-.38v5.69c-2.35,1.39-7.39,2.57-12,2.57-8.76,0-12.87-3.86-12.87-13.27Zm98-28.33c3.69,0,5.68.66,5.68,13.7l-12.32.72C1177,436.9,1178.75,434.31,1183.44,434.31ZM1176.92,454h26.49c0-18.65-6.41-24.6-19.73-24.6s-21.92,8.52-21.92,23.15c0,15.11,7.87,23.47,23.14,23.47,8.2,0,14.83-3.67,16.89-6.46v-4.33a37.82,37.82,0,0,1-11.94,1.53c-8,0-12.16-4.16-12.93-12.81Zm-65.28,16.89,4.71-2.17V420.41l-5-2.3v-4l18.32-3H1131v24.19h.49a22.77,22.77,0,0,1,15.33-5.87c7.5,0,11.23,3.73,11.23,11.88v27.43l4.76,2.17V475h-24.26v-4.09l4.76-2.17V444.64c0-4.51-2-6.2-6-6.2a16.34,16.34,0,0,0-6.08,1.13v29.19l4.76,2.18V475h-24.32v-4.11Z"/><path id="path10470" d="M1433.15,432.34v4l4.95,2.3v30.12l-4.72,2.19v4.11h24.22V471l-4.72-2.19V429.42h-1.24l-18.49,3Zm50.21,34.09v-12l-3.44.33a6.49,6.49,0,0,0-6.23,6.86c0,4.9,2.69,6.52,5.53,6.52a6,6,0,0,0,4.13-1.7Zm-10.43-31-3.12,9.07h-7.64V432.81c4.13-1.28,9.16-3.37,17-3.37,11.85,0,19,3.5,19,13.47v25.85l4.71,2.19v3.35a19.57,19.57,0,0,1-8.3,1.77c-4.63,0-8.78-1.48-9.46-6.3h-.44c-2,3.94-7.23,6.35-12.76,6.35-7.88,0-12.87-5.09-12.87-12.48,0-9.09,6-10.57,15.72-12.59l8.49-1.48v-5.8c0-5.71-1.75-8.54-7.39-8.54-.77,0-2.14.1-3,.19ZM1504,470.93l4.71-2.14V438.68l-5-2.3v-4l18.33-2.9h1.24v5.91h.49a22.76,22.76,0,0,1,15.33-5.86c7.5,0,11.23,3.72,11.23,11.88v27.43l4.76,2.19v4.11H1530.9v-4.05l4.76-2.15V444.64c0-4.51-2-6.2-6-6.2a16.34,16.34,0,0,0-6.08,1.13v29.19l4.71,2.18V475h-24.2v-4.11Zm-91.44-50.49-4.94-2.25v-4.05l18.47-3h1.24v56.23l4.71,2.57v3.83l-17.52,2h-1.2v-4.6h-.49c-1.86,2.35-5.64,4.82-11.17,4.82-8.1,0-17.8-5.15-17.8-22.18,0-17.91,9.91-24.37,21.68-24.37,2.46,0,5.37.55,7.17,1.86v-11Zm0,46.76V437.14a7.22,7.22,0,0,0-5-1.6c-4.62,0-8.16,4.16-8.16,16.7,0,11,2.79,15.77,8.64,15.77a10.93,10.93,0,0,0,4.54-.87Zm-183.29,22.61c-8.07,0-10.84-2.85-10.84-5.91a7.21,7.21,0,0,1,1.71-5h15.62c3.65,0,5.31,1.1,5.31,3.39,0,4.6-2.55,7.5-11.8,7.5Zm.13-55.19c3.23,0,5.31,1.42,5.31,10.29s-2.09,9.8-5.26,9.8-5.22-.74-5.22-9.78,2-10.29,5.25-10.29Zm9.8,30.83h-15.88a3,3,0,0,1-3.12-2.85,4.51,4.51,0,0,1,2-3.29,23.62,23.62,0,0,0,7.34.93c11.44,0,19.27-5.2,19.27-14.89,0-4.33-1.81-6.79-4.65-9.31v-.33l7.34,2.57,1,.05v-8.93h-.82l-11.3,2.25h-.63a31.67,31.67,0,0,0-10.29-2.14c-11.44,0-19.36,5.68-19.36,15.32a13.92,13.92,0,0,0,7.38,12.67V458c-2.55,1.8-7.45,5.49-7.45,10.21,0,3.45,2.28,6.86,7,7.88v.48c-5,1-10.62,2.68-10.62,8.43,0,5.91,8.57,10.29,22.54,10.29,17.36,0,24.87-6.68,24.87-17.25,0-8.71-4.82-12.76-14.62-12.76Zm111.21-33.07v4.05l5,2.3v30.12l-4.71,2.19v4.11h25.51v-4.05l-6.08-2.19V444.09c2.52-1.2,5.83-1.61,9.8-1.61a16.93,16.93,0,0,1,3.74.4v-13a8.55,8.55,0,0,0-2.19-.24c-4.87,0-8.85,3.14-11.46,9.09h-.44v-9.37h-1.26l-17.91,2.95Zm-20.37,34.11v-12l-3.39.33a6.5,6.5,0,0,0-6.19,6.9c0,4.93,2.68,6.52,5.53,6.52a6.08,6.08,0,0,0,4.13-1.7Zm-10.46-31-3.12,9.09h-7.67V432.81c4.16-1.28,9.2-3.37,17-3.37,11.88,0,19,3.5,19,13.47v25.85l4.71,2.19v3.35a19.41,19.41,0,0,1-8.27,1.77c-4.6,0-8.76-1.48-9.42-6.3h-.44c-2,3.94-7.23,6.35-12.73,6.35-7.87,0-12.81-5.09-12.81-12.48,0-9.09,6-10.57,15.75-12.59l8.53-1.48v-5.8c0-5.71-1.72-8.54-7.39-8.54-.74,0-2.14.1-3,.19Zm-61,3.23-4.93-2.3v-4l18.51-2.9h1.26v31.26c0,5.06,2.48,6,6.21,6a12.1,12.1,0,0,0,5.31-1.06v-27l-5-2.3v-4l18.45-2.95h1.2v38l4.93,2.57v3.85l-18,2h-1.29l0-5.91h-.49a17.06,17.06,0,0,1-13.52,6.08c-8.93,0-12.74-6.35-12.74-14.07V438.67Zm186.6-27.6a8.67,8.67,0,1,0,0,.07Zm107.6,61.52,9.44,0"/><path d="M694,480.36v.41H694A2.25,2.25,0,0,1,694,480.36Zm46.65-50.65-1.79.06-.52,2.08c-1,4-2.67,6.5-5.1,7.63-1,.46-1.69.58-4.06.73-1.57.09-3.78.17-4.89.18h-2v-6.53c0-6.54.35-20.44.58-22.6l.12-1.15h7.65l-8.75-.67-.11.52c-.3,1.37-.89,30.86-.63,31.25.14.21,1.26.22,5,.05,2.65-.12,5.26-.33,5.82-.46,2.26-.52,4-2.12,5.29-4.77a19.24,19.24,0,0,0,1.66-5.23c0-.47.09-.5,1.45-.5h1.46v25.48l-1.3-.07-1.3-.07-.49-2c-1.12-4.58-3.36-7.53-6.26-8.25a81.18,81.18,0,0,0-10.23-.42c-.22.23.12,15.06.46,20.1.48,7.1,1.73,10.43,4.43,11.83a33.46,33.46,0,0,0,6.49,1.45,2.93,2.93,0,0,1,.13,1.2v1.21H694c0,.14.09.22.15.25.4.16,39.11.17,39.53,0s.5-3.06,0-3.34a20.29,20.29,0,0,0-2.91-.57,19.93,19.93,0,0,1-3.4-.76c-2.53-1.1-3.94-4.15-4.48-9.67-.38-4-.68-11.25-.68-16.64v-4.95l2.36.07c5,.15,7.62.42,8.67.88,2.27,1,4.11,3.8,5.06,7.72l.51,2.08,1.79.06,1.79.06V429.65ZM756.54,416c-.08-5.57-.21-10.51-.28-11l-.14-.88-30.49-.06c-16.65,0-30.59,0-31,.07l-.72.13.06,1.8.06,1.8,2.3.28c3,.36,4.78,1.2,5.84,2.74,2.39,3.48,2.82,8.22,2.82,30.73,0,24-.5,29.8-2.81,32.82C701,476,700,476.5,697.32,477c-3.52.65-3.4.57-3.4,2.39a8.9,8.9,0,0,0,0,1v-2l1.11-.24c.61-.13,1.79-.35,2.62-.48,3-.5,4.85-2.14,5.84-5.25,1.2-3.77,1.43-7.66,1.6-26.37.16-17.7-.19-27.16-1.16-31.35-.63-2.7-1.62-4.41-3.23-5.58-1.06-.77-2-1.06-4.68-1.39l-2-.25-.07-1.37-.07-1.37h61.45l.13,3.35c.07,1.84.18,6.58.24,10.53l.11,7.18-1.38.47a8.68,8.68,0,0,1-1.6.4s-.32-.85-.65-1.82-1.08-2.77-1.67-4c-2.61-5.51-5.73-8.68-10.07-10.24l-1.87-.48h-8.05c7.37,0,8.68.21,11.42,1.54,4.1,2,7.09,6,9.71,12.83,1.06,2.8,1,2.79,3.41,2.07l1.57-.47Zm45.59,33c-1.15-9.73-5.28-16.85-12.09-20.87-7.57-4.45-19.07-4.71-27.24-.61a26.46,26.46,0,0,0-12.86,15.22,39.16,39.16,0,0,0,0,22.54,24.58,24.58,0,0,0,6.3,10.58,23.82,23.82,0,0,0,13.52,6.54,58.87,58.87,0,0,0,9.88,0,30.83,30.83,0,0,0,3.58-.78c9.64-2.79,16.22-10.2,18.48-20.8A51.32,51.32,0,0,0,802.13,449Zm-24.41,29.15c-6,1.78-10.28-3.93-11.95-15.89a109.9,109.9,0,0,1,0-18.82c1.17-9.62,4.14-14.5,8.82-14.51a6,6,0,0,1,4.93,2.17c3.93,4,5.79,11.51,5.76,23.37,0,9.47-1,15.43-3.07,19.47A8.92,8.92,0,0,1,777.72,478.13Zm64-53.42a12.35,12.35,0,0,0-6,1.23c-3.76,1.72-6.59,4.55-9.11,9.09l-.79,1.42.1-2.52c.06-1.39.15-4,.21-5.76l.11-3.24h-.54c-.69,0-22.44,4.35-23.09,4.62-.43.18-.49.37-.49,1.41s.05,1.22.49,1.31l2.22.43c1.92.37,2.5.67,3.29,1.72,1.46,1.93,1.76,5.35,1.75,19.81,0,11.82-.26,17.71-.82,19.55a4.82,4.82,0,0,1-4,3.81l-2,.4-.77.16-.07,1.51c0,1.07,0,1.57.22,1.7s7.59.16,16.52.13l16.24-.05.06-1.7a4.33,4.33,0,0,0-.11-1.7,32.61,32.61,0,0,1-5.74-.79c-1.83-.76-2.72-2.41-3.1-5.75-.45-3.92-.72-13.66-.59-21.64s.13-8.1.63-8.64c1.18-1.26,4.16-2.24,6.82-2.25a15.3,15.3,0,0,1,6.7,1.68,8.68,8.68,0,0,0,2.31.88c.29-.11,5.62-14.19,5.62-14.85C847.74,425.7,844.71,424.71,841.69,424.71Zm58.91,19.66c-2.18-10-8.43-16.93-16.88-18.67a19.31,19.31,0,0,0-5-.24,22.14,22.14,0,0,0-9.21,2c-.94.43-1.76.79-1.82.79s-.05-5.72,0-12.72c.1-9.85.07-12.72-.13-12.72-.71,0-23.11,4.26-23.36,4.46s-.26.62-.22,1.34c.07,1.25-.08,1.15,2.65,1.76a7.52,7.52,0,0,1,2.14.79c.91.65,1.67,2.05,2.19,4.07.41,1.59.47,2.73.66,13.47.2,11,.16,22.24-.14,42.9l-.13,8.58,1.61.37c2.32.53,9,1.63,11.15,1.85a82.19,82.19,0,0,0,13-.08c10.28-1.55,18-7.52,21.65-16.66a40.26,40.26,0,0,0,2.2-8.93A52.61,52.61,0,0,0,900.6,444.37Zm-32.68,33.08c-.28-.74-.61-26.44-.48-36.71l.11-8,1.45-.43a12.17,12.17,0,0,1,3.44-.43,5.89,5.89,0,0,1,3.66.83c3.77,1.86,6.35,6.49,7.56,13.54a64.86,64.86,0,0,1,.1,12.83c-1,7.66-3.49,13.84-6.82,16.83a8.12,8.12,0,0,1-4.16,2.13,10.43,10.43,0,0,1-3.59.06C868.3,478,868.1,477.92,867.92,477.45Zm86.16-30.67c-1-9.85-5-16.64-11.79-20-6-3-15.33-2.8-22.13.52-6.45,3.14-10.89,8.39-13.36,15.79a31.32,31.32,0,0,0-1.57,12,31.92,31.92,0,0,0,.55,6.25c2.54,11.35,10.32,19.06,21.2,21a41.15,41.15,0,0,0,10.25,0,28.15,28.15,0,0,0,10-3.84c3.07-2.07,6.21-5.19,6.21-6.15,0-.59-1.06-1.95-1.51-1.95a7.57,7.57,0,0,0-1.89,1,16.73,16.73,0,0,1-9.86,2.74c-5.5,0-9-1.37-12.5-4.91a14,14,0,0,1-3-4,27.25,27.25,0,0,1-2.87-11.79l-.06-1.57H938l16.23-.67.07-.88A29.57,29.57,0,0,0,954.08,446.78Zm-27.92.28-4.11.07v-.89a26.68,26.68,0,0,1,.31-2.86c1.37-8.83,4.66-14.13,8.79-14.13,3.79,0,6.13,5.22,6.62,14.77l.14,2.71-3.82.13C932,446.94,928.42,447,926.16,447.06Zm71.25,9.67c-1.84-3.69-5.24-6.21-12.35-9.18-5.81-2.43-8.72-4.11-10.5-6.06a6.07,6.07,0,0,1-1.73-5.22,7,7,0,0,1,2-4.94,7.1,7.1,0,0,1,7.05-1.92c4.74,1,7.78,4.28,10.39,11.22.94,2.47,1,2.55,2.73,1.93l1.06-.39,0-2.85c0-1.57-.1-4.86-.18-7.32l-.14-4.47-.79-.33c-4.33-1.84-12.61-3-18-2.49-6.12.56-10.61,2.5-14.07,6.08a16.15,16.15,0,0,0-4.71,12.7,13.88,13.88,0,0,0,4,9.64c2.34,2.4,4.31,3.53,10,5.74,9.11,3.56,11.52,5.66,11.5,10A7.75,7.75,0,0,1,978,476.6a14.46,14.46,0,0,1-6.24,0c-4.53-1.19-8-5.12-10.94-12.38l-.76-1.86-.89,0a4.67,4.67,0,0,0-1.49.33l-.61.29.05,3.18c0,1.75.12,5.43.2,8.18l.14,5,1,.43a60.45,60.45,0,0,0,12.19,2.67c.48.05,3.15.07,5.92,0,4.81-.05,5.16-.09,7.58-.72,7.15-1.87,11.77-5.85,13.82-11.9a13.64,13.64,0,0,0,.81-5.19C998.94,461,998.61,459.13,997.41,456.74Z"/><path d="M755.86,425.8l-1.38.47a8.68,8.68,0,0,1-1.6.4s-.32-.85-.65-1.82-1.08-2.77-1.67-4c-2.61-5.51-5.73-8.68-10.07-10.24l-1.87-.48h-8.05l-8.75-.67-.11.52c-.3,1.37-.89,30.86-.63,31.25.14.21,1.26.22,5,.05,2.65-.12,5.26-.33,5.82-.46,2.26-.52,4-2.12,5.29-4.77a19.24,19.24,0,0,0,1.66-5.23c0-.47.09-.5,1.45-.5h1.46v25.48l-1.3-.07-1.3-.07-.49-2c-1.12-4.58-3.36-7.53-6.26-8.25a81.18,81.18,0,0,0-10.23-.42c-.22.23.12,15.06.46,20.1.48,7.1,1.73,10.43,4.43,11.83a33.46,33.46,0,0,0,6.49,1.45,2.93,2.93,0,0,1,.13,1.2v1.21H694a2.25,2.25,0,0,1-.07-.41v-2l1.11-.24c.61-.13,1.79-.35,2.62-.48,3-.5,4.85-2.14,5.84-5.25,1.2-3.77,1.43-7.66,1.6-26.37.16-17.7-.19-27.16-1.16-31.35-.63-2.7-1.62-4.41-3.23-5.58-1.06-.77-2-1.06-4.68-1.39l-2-.25-.07-1.37-.07-1.37h61.45l.13,3.35c.07,1.84.18,6.58.24,10.53Z"/><path d="M1394.33,60.29c-14.1-3.38-27.63,3.39-31,7.33-2.25,1.13,10.72-11.84,11.84-22.56.56-7.9-3.95-25.38-5.08-30.45l6.77-5.08c5.08,5.08,21.43,14.1,28.76-2.82-3.39,2.82-14.66,2.25-20.87-5.08l-14.66,11.28c-1.13-3.38,3.95-8.46,5.08-9.59,1.13-.56.56-2.25-1.69-1.13-7.33,5.08-16.92,11.28-11.84,35,4.51,19.74,2.82,26.51-3.95,33.84,0,1.13,1.69.56,1.69,1.69,4.51-2.82,25.38-10.15,37.22,2.25l9-18s-.56-1.13-1.13-1.13c-.56,1.13-4.51,5.64-10.14,4.51ZM1539.26,5.51s11.84,31,17.48,46.24c6.77,18.61,7.9,13.54,9,12.41,1.13,7.89-11.28,13-14.66,5.07l-6.2-15.79H1518.4l-2.82,6.77c1.69.56,3.95.56,6.2,2.25,2.82,1.69,5.08-1.13,5.08-1.13.56-.56.56,0,1.13,0l-6.77,11.84c-5.64-5.64-16.35-4.51-22.56,0l-.56-.56c0-4.51,11.28-13,15.23-12.41,1.13-1.69,18-43.43,18-43.43-4.51-12.41-7.33-10.15-10.72-8.46-.56-.56,0-1.69,1.69-3.95,3.95-5.64,12.41-5.64,15.22-1.13a6.87,6.87,0,0,1,2.82-.56l-1.69,2.26.56.56ZM1541,42.73l-9-22-9,22h18Zm114.49,20.38,1.13-1.13V36.6l-1.13-1.13,20.87-11.84L1691,40.55c-5.08,3.39-23.69,16.36-23.69,16.36l11.28,8.46c2.82-1.13,7.9-5.64,9-7.33,2.26-3.39,4.51-.56,2.82,1.13-.56,1.13-12.41,10.15-18.61,15.79l-16.36-11.84ZM1680,45.63,1668.12,31V54.09Zm-272.42-9.57L1428.39,22l15.21,10.7L1443,33.8V58l.56,1.13L1422.76,73.8l-14.65-10.7,1.13-1.13V37.18ZM1420,57.7l11.54,9.82V36.35L1420,27.69Zm45.11-11.57,8.9-8.9,11.68,5.56-.56,1.67v14.7l.56,1.13-20.26,12.94c-11.25-13.51-16.32-3.94-16.32-1.13-6.19-5.62.56-10.69.56-10.69l6.19-7.31-6.75-4.5.56-1.13V35.06l-.58-1.15c7.5-4.62,14.42-8.66,22.5-12.69a7.62,7.62,0,0,0,9.81,3.46l2.31-1.73c.58,2.89-1.73,8.08-6.35,10.39-4,1.73-7.5.58-11.54-1.16l-4.62-4v15.2l3.89,2.79Zm.58.06-13,13.53c4.51-1.69,13.53-3.38,20.87,4.52V50.14Z"/><path d="M1393.16,14.7v47" style="fill:none;stroke:#000;stroke-miterlimit:2.61299991607666;stroke-width:0.5400204759395px"/><path d="M1580.72,36.64V59.13l2.81,2.81c1.13,1.13,2.25,0,3.37-.56l.56.56L1579,74.31l-11.81-10.12,1.12-1.13V38.33l-4.5-4.5a2.53,2.53,0,0,0-3.37,0l-.56-.56,9-9,12.93,10.12-1.13,2.25Z"/><path d="M1601.33,36.93v22l3.29,2.75c1.1,1.1,2.2,0,3.29-.55l.55.55-8.24,12.09-11.54-9.89,1.1-1.1V38.58l-4.94-4.4c-.55-.55-1.65,0-2.75,1.1l-1.65-1.65,9.89-8.79L1603,34.74l-1.64,2.2Z"/><path d="M1647.81,34.74l-1.13,1.14v29c0,4,2.84,5.68,5.68,2.27,0,30.08-23.28,22.14-31.79,19.86-8-1.7-11.92,0-13.06,1.14-1.14,1.7-1.71,0-1.71-.57,4.54-6.81,12.49-14.19,25-9.08,13.62,5.11,17.6-1.13,19.3-6.25-8,5.68-14.2-1.7-14.2-3.4l-10.22,6.81-14.76-11.35,1.14-1.14V39.28l-.57-1.13,21-14.76,15.32,11.35Zm-24.22,23.5,11.54,9.81V38.62L1623.59,30ZM1706,20.34V59.58l3.47,2.89c.57,1.16,2.3,0,3.46-.57l.57.57-8.66,12.7-11-10.39.58-1.16V22.07l-5.19-4.62a2.16,2.16,0,0,0-3.46,0l-.58-.58,9.24-9.81,13.27,11Zm11.24,42.77,1.12-1.13V36.6l-1.12-1.13,20.86-11.84,14.66,16.92c-5.08,3.39-23.69,16.36-23.69,16.36l11.28,8.46c2.82-1.13,7.9-5.64,9-7.33,2.25-3.39,4.51-.56,2.82,1.13-.57,1.13-13,10.15-18.61,15.79l-16.35-11.84Zm24.25-17.48L1729.13,31V54.09Zm30.32.61,8.54-9.11,12,5.69-.57,1.71V59.13l1.14,1.15-21.16,13.15c-10.86-13.73-16-4-16-1.15-6.86-5.72,0-10.86,0-10.86l6.87-7.43-7.43-4.58,1.15-1.15V35.07l-.58-1.15a199.09,199.09,0,0,1,21.95-12.7c2.3,3.46,6.35,5.19,10.4,3.46l2.3-1.73a13.76,13.76,0,0,1-6.35,10.4c-4.62,1.73-8.08.58-12.13-1.16l-4-4V43.38l4,2.85Zm1.05,0-13,13.53a17.82,17.82,0,0,1,20.3,4.52V50.14Zm252.79-.06,8.89-8.9,11.68,5.56-.55,1.67v14.7l1.13,1.13L2026,73.23c-11.25-13.51-16.32-3.94-16.32-1.13-6.19-5.62.57-10.69.57-10.69l6.19-7.32-6.76-4.5.57-1.13V35.07l-.58-1.15c7.5-4.62,14.43-8.66,22.52-12.7a7.63,7.63,0,0,0,9.82,3.46l2.3-1.73c.58,2.89-1.73,8.08-6.35,10.39-4,1.73-7.5.58-11.55-1.16l-4.62-4v15.2l3.89,2.79Zm.58.06-12.41,13.53a17.82,17.82,0,0,1,20.3,4.52V50.14l-7.89-3.95Zm-56.72,16.91,1.13-1.13V36.6l-1.13-1.13,20.86-11.84,14.66,16.92C2000.57,43.93,1982,56.9,1982,56.9l10.72,8.46c2.82-1.13,8.45-5.64,9.58-7.33,2.26-3.39,4.51-.56,2.82,1.13-1.13,1.13-13,10.15-19.17,15.79l-16.36-11.84Zm25.08-17.48L1982.23,31V54.09Zm-78.36-9.32V59.4l3.47,2.89c1.15,1.16,2.3,0,3.46-.57l.58.57L1915.13,75l-11-10.39.58-1.16v-26l-5.2-4a2.6,2.6,0,0,0-3.46,0l-.57-.58,9.23-9.24L1918,34l-1.73,2.31Z"/><path d="M1937.71,36.31V59.39l3.46,2.89c.58,1.16,1.74,0,3.47-.57l.57.57L1936.56,75,1925,64.59l1.15-1.16v-26l-5.77-4c-.57-.58-2.3,0-2.88,1.15l-1.74-1.73,10.39-9.23L1939.44,34l-1.73,2.31Z"/><path d="M1959.15,36.3V59.4l3.47,2.89c1.15,1.16,2.3,0,3.46-.57l.57.57L1958,75,1947,64.6l.58-1.16v-26l-5.2-4c-1.16-.58-2.3,0-3.46,1.15l-1.73-1.73,10.39-9.24L1960.88,34l-1.73,2.31Zm-67.61,0V59.39l3.46,2.89c.58,1.16,1.74,0,3.47-.57l.57.57L1890.39,75l-11.53-10.39,1.15-1.16v-26l-5.19-4c-1.16-.58-2.89-1.16-3.47,0l-.57-.58,9.23-9.23L1893.27,34l-1.73,2.31Zm-17.86-15.5c1.69-1.13,3.95-1.69,6.77,1.13,2.82,2.25,9.58,1.69,14.66-6.77l-.57-.56c-1.69,1.13-8.45.56-10.71-3.38l-10.15,9.58Zm-53,1.69v.56c2.25-3.38,6.76-11.28,27.63-6.2,14.66,3.95,25.38,5.64,28.76-8.46l-1.12-.56c-1.13,1.69-7.33,2.82-26.51-1.13-19.17-3.39-28.19,1.69-28.76,15.79Z"/><path d="M1859,23.07c-18-10.72-47.94,5.64-41.17,32.15,7.33,26.5,48.5,29.89,56.39-2.82.57-1.13,0-2.82-1.12,0-2.82,6.21-11.84,14.1-22,14.1-11.85,0-22-11.85-22-22.56s7.33-22,22-22c-3.39,2.25-15.23,9.59-7.9,22.56,7.33,13.53,6.77,17.48,3.95,22l.56.56c4.51-4.52,14.1-10.72,6.77-24.25C1847.18,28.71,1847.74,20.25,1859,23.07Z"/><path d="M1863.92,17.58V65.4" style="fill:none;stroke:#000;stroke-linecap:square;stroke-miterlimit:2.61299991607666;stroke-width:0.5400204759395px"/></svg>